<svg width="20" height="17" viewBox="0 0 20 17" fill="none" xmlns="http://www.w3.org/2000/svg">
<g filter="url(#filter0_d_226_74)">
<path d="M18.7806 8.91951L12.0306 15.6695C11.8899 15.8102 11.699 15.8893 11.5 15.8893C11.301 15.8893 11.1101 15.8102 10.9694 15.6695C10.8286 15.5288 10.7496 15.3379 10.7496 15.1389C10.7496 14.9399 10.8286 14.749 10.9694 14.6083L16.4397 9.13889H1.75C1.55109 9.13889 1.36032 9.05987 1.21967 8.91922C1.07902 8.77856 1 8.5878 1 8.38889C1 8.18997 1.07902 7.99921 1.21967 7.85856C1.36032 7.7179 1.55109 7.63889 1.75 7.63889H16.4397L10.9694 2.16951C10.8286 2.02878 10.7496 1.83791 10.7496 1.63889C10.7496 1.43986 10.8286 1.24899 10.9694 1.10826C11.1101 0.967531 11.301 0.88847 11.5 0.88847C11.699 0.88847 11.8899 0.967531 12.0306 1.10826L18.7806 7.85826C18.8504 7.92792 18.9057 8.01063 18.9434 8.10168C18.9812 8.19273 19.0006 8.29033 19.0006 8.38889C19.0006 8.48745 18.9812 8.58504 18.9434 8.67609C18.9057 8.76714 18.8504 8.84986 18.7806 8.91951Z" fill="white"/>
</g>
<defs>
<filter id="filter0_d_226_74" x="0.5" y="0.88847" width="19.0005" height="16.0008" filterUnits="userSpaceOnUse" color-interpolation-filters="sRGB">
<feFlood flood-opacity="0" result="BackgroundImageFix"/>
<feColorMatrix in="SourceAlpha" type="matrix" values="0 0 0 0 0 0 0 0 0 0 0 0 0 0 0 0 0 0 127 0" result="hardAlpha"/>
<feOffset dy="0.5"/>
<feGaussianBlur stdDeviation="0.25"/>
<feComposite in2="hardAlpha" operator="out"/>
<feColorMatrix type="matrix" values="0 0 0 0 0 0 0 0 0 0 0 0 0 0 0 0 0 0 0.25 0"/>
<feBlend mode="normal" in2="BackgroundImageFix" result="effect1_dropShadow_226_74"/>
<feBlend mode="normal" in="SourceGraphic" in2="effect1_dropShadow_226_74" result="shape"/>
</filter>
</defs>
</svg>
