<svg width="147" height="44" viewBox="0 0 147 44" fill="none" xmlns="http://www.w3.org/2000/svg">
<g filter="url(#filter0_b_72_41)">
<rect width="147" height="44" rx="22" fill="#009933" fill-opacity="0.8"/>
<circle cx="22" cy="22" r="12" fill="white" fill-opacity="0.2"/>
<path d="M19.2 26.6666H16.8667V19.6666H19.2V26.6666ZM18.0338 18.7332C17.3884 18.7332 16.8667 18.2101 16.8667 17.5661C16.8667 16.9221 17.3894 16.3999 18.0338 16.3999C18.6769 16.3999 19.2 16.923 19.2 17.5661C19.2 18.2101 18.6769 18.7332 18.0338 18.7332ZM27.6 26.6666H25.3568V23.2599C25.3568 22.4474 25.3414 21.4026 24.1906 21.4026C23.0225 21.4026 22.8428 22.2874 22.8428 23.2011V26.6666H20.6V19.6614H22.7532V20.6186H22.7836C23.0832 20.0679 23.8154 19.4874 24.9074 19.4874C27.18 19.4874 27.6 20.9382 27.6 22.8245V26.6666Z" fill="white"/>
<path d="M41.1689 28.5V15.8174H43.1377V26.8037H49.0439V28.5H41.1689ZM51.1713 17.8301C50.556 17.8301 50.0638 17.3379 50.0638 16.7402C50.0638 16.1338 50.556 15.6416 51.1713 15.6416C51.7953 15.6416 52.2787 16.1338 52.2787 16.7402C52.2787 17.3379 51.7953 17.8301 51.1713 17.8301ZM50.222 28.5V19.2539H52.1205V28.5H50.222ZM53.7204 28.5V19.2539H55.6189V20.6514H55.6628C56.1462 19.7109 57.0954 19.0781 58.4929 19.0781C60.5232 19.0781 61.6921 20.3877 61.6921 22.5146V28.5H59.7849V22.875C59.7849 21.4863 59.1345 20.7041 57.8161 20.7041C56.4802 20.7041 55.6189 21.6709 55.6189 23.1123V28.5H53.7204ZM63.2745 28.5V15.8174H65.1729V23.2002H65.2169L68.9259 19.2539H71.1583L67.3614 23.2441L71.3077 28.5H69.1016L65.9639 24.3867L65.1729 25.1689V28.5H63.2745ZM75.4037 28.6846C72.6879 28.6846 71.0444 26.8301 71.0444 23.9121V23.9033C71.0444 21.0117 72.7143 19.0781 75.3071 19.0781C77.8998 19.0781 79.4907 20.9414 79.4907 23.7188V24.3604H72.9428C72.978 26.1094 73.936 27.1289 75.4477 27.1289C76.5727 27.1289 77.3198 26.5488 77.5571 25.8545L77.5834 25.7842H79.3852L79.3676 25.8809C79.0688 27.3486 77.645 28.6846 75.4037 28.6846ZM75.3159 20.6338C74.0854 20.6338 73.1362 21.4688 72.9692 23.0156H77.6098C77.4516 21.416 76.5551 20.6338 75.3159 20.6338ZM84.0613 28.6846C81.7059 28.6846 80.1941 26.8213 80.1941 23.877V23.8682C80.1941 20.9238 81.7234 19.0781 84.0438 19.0781C85.3533 19.0781 86.408 19.7373 86.9617 20.8271H86.9969V15.8174H88.9041V28.5H86.9969V26.9355H86.9617C86.408 28.0166 85.3885 28.6846 84.0613 28.6846ZM84.5623 27.0498C85.9949 27.0498 87.0057 25.8018 87.0057 23.877V23.8682C87.0057 21.9521 85.9861 20.7041 84.5623 20.7041C83.0682 20.7041 82.1365 21.917 82.1365 23.8682V23.877C82.1365 25.8457 83.0594 27.0498 84.5623 27.0498ZM91.5236 17.8301C90.9084 17.8301 90.4162 17.3379 90.4162 16.7402C90.4162 16.1338 90.9084 15.6416 91.5236 15.6416C92.1476 15.6416 92.631 16.1338 92.631 16.7402C92.631 17.3379 92.1476 17.8301 91.5236 17.8301ZM90.5744 28.5V19.2539H92.4728V28.5H90.5744ZM94.0728 28.5V19.2539H95.9712V20.6514H96.0152C96.4986 19.7109 97.4478 19.0781 98.8452 19.0781C100.876 19.0781 102.044 20.3877 102.044 22.5146V28.5H100.137V22.875C100.137 21.4863 99.4868 20.7041 98.1685 20.7041C96.8325 20.7041 95.9712 21.6709 95.9712 23.1123V28.5H94.0728Z" fill="white"/>
<path d="M116 21.9999C116 22.1988 116.079 22.3896 116.22 22.5303C116.361 22.6709 116.551 22.7499 116.75 22.7499H131.44L125.97 28.2193C125.9 28.289 125.845 28.3717 125.807 28.4628C125.769 28.5538 125.75 28.6514 125.75 28.7499C125.75 28.8485 125.769 28.9461 125.807 29.0371C125.845 29.1281 125.9 29.2109 125.97 29.2806C126.039 29.3502 126.122 29.4055 126.213 29.4432C126.304 29.4809 126.402 29.5003 126.5 29.5003C126.599 29.5003 126.697 29.4809 126.788 29.4432C126.879 29.4055 126.961 29.3502 127.031 29.2806L133.781 22.5306C133.851 22.4609 133.906 22.3782 133.944 22.2871C133.982 22.1961 134.001 22.0985 134.001 21.9999C134.001 21.9014 133.982 21.8038 133.944 21.7127C133.906 21.6217 133.851 21.539 133.781 21.4693L127.031 14.7193C126.89 14.5786 126.699 14.4995 126.5 14.4995C126.301 14.4995 126.11 14.5786 125.97 14.7193C125.829 14.86 125.75 15.0509 125.75 15.2499C125.75 15.449 125.829 15.6398 125.97 15.7806L131.44 21.2499H116.75C116.551 21.2499 116.361 21.3289 116.22 21.4696C116.079 21.6103 116 21.801 116 21.9999Z" fill="white"/>
</g>
<defs>
<filter id="filter0_b_72_41" x="-4" y="-4" width="155" height="52" filterUnits="userSpaceOnUse" color-interpolation-filters="sRGB">
<feFlood flood-opacity="0" result="BackgroundImageFix"/>
<feGaussianBlur in="BackgroundImageFix" stdDeviation="2"/>
<feComposite in2="SourceAlpha" operator="in" result="effect1_backgroundBlur_72_41"/>
<feBlend mode="normal" in="SourceGraphic" in2="effect1_backgroundBlur_72_41" result="shape"/>
</filter>
</defs>
</svg>
