<svg width="136" height="44" viewBox="0 0 136 44" fill="none" xmlns="http://www.w3.org/2000/svg">
<g filter="url(#filter0_b_48_4)">
<rect width="136" height="44" rx="22" fill="#009933" fill-opacity="0.5"/>
<circle cx="22" cy="22" r="12" fill="white" fill-opacity="0.2"/>
<path d="M25.6903 16.1106H27.6581L23.3589 21.0243L28.4166 27.7107H24.4565L21.3548 23.6555L17.8057 27.7107H15.8367L20.4351 22.455L15.5833 16.1106H19.6439L22.4476 19.8173L25.6903 16.1106ZM24.9996 26.5329H26.09L19.0514 17.2266H17.8813L24.9996 26.5329Z" fill="white"/>
<path d="M44.3154 28.5V17.5137H40.4307V15.8174H50.1602V17.5137H46.2842V28.5H44.3154ZM51.558 28.5L49.0179 19.2539H50.9164L52.6039 26.5312H52.639L54.5638 19.2539H56.392L58.3255 26.5312H58.3695L60.057 19.2539H61.9379L59.4066 28.5H57.4291L55.4867 21.5742H55.4427L53.5179 28.5H51.558ZM63.7663 17.8301C63.1511 17.8301 62.6589 17.3379 62.6589 16.7402C62.6589 16.1338 63.1511 15.6416 63.7663 15.6416C64.3904 15.6416 64.8738 16.1338 64.8738 16.7402C64.8738 17.3379 64.3904 17.8301 63.7663 17.8301ZM62.8171 28.5V19.2539H64.7155V28.5H62.8171ZM69.5587 28.6846C67.7305 28.6846 66.8516 27.9111 66.8516 26.0654V20.7656H65.5245V19.2539H66.8516V16.8457H68.794V19.2539H70.5255V20.7656H68.794V25.9512C68.794 26.8916 69.2159 27.1729 70.0157 27.1729C70.2179 27.1729 70.3848 27.1553 70.5255 27.1377V28.6055C70.3057 28.6406 69.9454 28.6846 69.5587 28.6846ZM74.9819 28.6846C73.1537 28.6846 72.2748 27.9111 72.2748 26.0654V20.7656H70.9477V19.2539H72.2748V16.8457H74.2172V19.2539H75.9487V20.7656H74.2172V25.9512C74.2172 26.8916 74.6391 27.1729 75.4389 27.1729C75.6411 27.1729 75.808 27.1553 75.9487 27.1377V28.6055C75.7289 28.6406 75.3686 28.6846 74.9819 28.6846ZM80.8797 28.6846C78.1639 28.6846 76.5203 26.8301 76.5203 23.9121V23.9033C76.5203 21.0117 78.1902 19.0781 80.783 19.0781C83.3758 19.0781 84.9666 20.9414 84.9666 23.7188V24.3604H78.4188C78.4539 26.1094 79.4119 27.1289 80.9236 27.1289C82.0486 27.1289 82.7957 26.5488 83.033 25.8545L83.0594 25.7842H84.8611L84.8436 25.8809C84.5447 27.3486 83.1209 28.6846 80.8797 28.6846ZM80.7918 20.6338C79.5613 20.6338 78.6121 21.4688 78.4451 23.0156H83.0857C82.9275 21.416 82.0311 20.6338 80.7918 20.6338ZM86.0832 28.5V19.2539H87.9816V20.8359H88.0255C88.3244 19.7549 89.0978 19.0781 90.1525 19.0781C90.425 19.0781 90.6623 19.1221 90.8117 19.1484V20.915C90.6623 20.8535 90.3283 20.8096 89.9591 20.8096C88.7375 20.8096 87.9816 21.6094 87.9816 22.9893V28.5H86.0832Z" fill="white"/>
<path d="M105.001 22.0001C105.001 22.199 105.08 22.3897 105.22 22.5304C105.361 22.671 105.552 22.7501 105.751 22.7501H120.44L114.97 28.2194C114.9 28.2891 114.845 28.3718 114.807 28.4629C114.77 28.5539 114.75 28.6515 114.75 28.7501C114.75 28.8486 114.77 28.9462 114.807 29.0372C114.845 29.1283 114.9 29.211 114.97 29.2807C115.04 29.3504 115.122 29.4056 115.213 29.4433C115.305 29.4811 115.402 29.5005 115.501 29.5005C115.599 29.5005 115.697 29.4811 115.788 29.4433C115.879 29.4056 115.962 29.3504 116.031 29.2807L122.781 22.5307C122.851 22.461 122.906 22.3783 122.944 22.2873C122.982 22.1962 123.001 22.0986 123.001 22.0001C123.001 21.9015 122.982 21.8039 122.944 21.7128C122.906 21.6218 122.851 21.5391 122.781 21.4694L116.031 14.7194C115.891 14.5787 115.7 14.4996 115.501 14.4996C115.302 14.4996 115.111 14.5787 114.97 14.7194C114.829 14.8602 114.75 15.051 114.75 15.2501C114.75 15.4491 114.829 15.6399 114.97 15.7807L120.44 21.2501H105.751C105.552 21.2501 105.361 21.3291 105.22 21.4697C105.08 21.6104 105.001 21.8011 105.001 22.0001Z" fill="white"/>
</g>
<defs>
<filter id="filter0_b_48_4" x="-4" y="-4" width="144" height="52" filterUnits="userSpaceOnUse" color-interpolation-filters="sRGB">
<feFlood flood-opacity="0" result="BackgroundImageFix"/>
<feGaussianBlur in="BackgroundImageFix" stdDeviation="2"/>
<feComposite in2="SourceAlpha" operator="in" result="effect1_backgroundBlur_48_4"/>
<feBlend mode="normal" in="SourceGraphic" in2="effect1_backgroundBlur_48_4" result="shape"/>
</filter>
</defs>
</svg>
