<svg width="18" height="16" viewBox="0 0 18 16" fill="none" xmlns="http://www.w3.org/2000/svg">
<path d="M17.7806 8.41951L11.0306 15.1695C10.8899 15.3102 10.699 15.3893 10.5 15.3893C10.301 15.3893 10.1101 15.3102 9.96937 15.1695C9.82864 15.0288 9.74958 14.8379 9.74958 14.6389C9.74958 14.4399 9.82864 14.249 9.96937 14.1083L15.4397 8.63889H0.75C0.551088 8.63889 0.360322 8.55987 0.21967 8.41922C0.0790178 8.27856 0 8.0878 0 7.88889C0 7.68997 0.0790178 7.49921 0.21967 7.35856C0.360322 7.2179 0.551088 7.13889 0.75 7.13889H15.4397L9.96937 1.66951C9.82864 1.52878 9.74958 1.33791 9.74958 1.13889C9.74958 0.939864 9.82864 0.748992 9.96937 0.608262C10.1101 0.467531 10.301 0.38847 10.5 0.38847C10.699 0.38847 10.8899 0.467531 11.0306 0.608262L17.7806 7.35826C17.8504 7.42792 17.9057 7.51063 17.9434 7.60168C17.9812 7.69273 18.0006 7.79033 18.0006 7.88889C18.0006 7.98745 17.9812 8.08504 17.9434 8.17609C17.9057 8.26714 17.8504 8.34986 17.7806 8.41951Z" fill="#0A7B0A"/>
</svg>
