<svg width="62" height="52" viewBox="0 0 62 52" fill="none" xmlns="http://www.w3.org/2000/svg">
<rect width="62" height="52" rx="6" fill="#F9F9F9"/>
<path d="M42.7075 26.7076L33.7075 35.7076C33.5199 35.8952 33.2654 36.0006 33 36.0006C32.7346 36.0006 32.4801 35.8952 32.2925 35.7076C32.1049 35.5199 31.9994 35.2654 31.9994 35.0001C31.9994 34.7347 32.1049 34.4802 32.2925 34.2926L39.5863 27.0001H20C19.7348 27.0001 19.4804 26.8947 19.2929 26.7072C19.1054 26.5196 19 26.2653 19 26.0001C19 25.7349 19.1054 25.4805 19.2929 25.293C19.4804 25.1054 19.7348 25.0001 20 25.0001H39.5863L32.2925 17.7076C32.1049 17.5199 31.9994 17.2654 31.9994 17.0001C31.9994 16.7347 32.1049 16.4802 32.2925 16.2926C32.4801 16.1049 32.7346 15.9995 33 15.9995C33.2654 15.9995 33.5199 16.1049 33.7075 16.2926L42.7075 25.2926C42.8005 25.3854 42.8742 25.4957 42.9246 25.6171C42.9749 25.7385 43.0008 25.8687 43.0008 26.0001C43.0008 26.1315 42.9749 26.2616 42.9246 26.383C42.8742 26.5044 42.8005 26.6147 42.7075 26.7076Z" fill="#333333"/>
</svg>
