<svg width="62" height="52" viewBox="0 0 62 52" fill="none" xmlns="http://www.w3.org/2000/svg">
<rect width="62" height="52" rx="6" transform="matrix(-1 0 0 1 62 0)" fill="#F9F9F9"/>
<path d="M19.2925 26.7076L28.2925 35.7076C28.4801 35.8952 28.7346 36.0006 29 36.0006C29.2654 36.0006 29.5199 35.8952 29.7075 35.7076C29.8951 35.5199 30.0006 35.2654 30.0006 35.0001C30.0006 34.7347 29.8951 34.4802 29.7075 34.2926L22.4137 27.0001H42C42.2652 27.0001 42.5196 26.8947 42.7071 26.7072C42.8946 26.5196 43 26.2653 43 26.0001C43 25.7349 42.8946 25.4805 42.7071 25.293C42.5196 25.1054 42.2652 25.0001 42 25.0001H22.4137L29.7075 17.7076C29.8951 17.5199 30.0006 17.2654 30.0006 17.0001C30.0006 16.7347 29.8951 16.4802 29.7075 16.2926C29.5199 16.1049 29.2654 15.9995 29 15.9995C28.7346 15.9995 28.4801 16.1049 28.2925 16.2926L19.2925 25.2926C19.1995 25.3854 19.1258 25.4957 19.0754 25.6171C19.0251 25.7385 18.9992 25.8687 18.9992 26.0001C18.9992 26.1315 19.0251 26.2616 19.0754 26.383C19.1258 26.5044 19.1995 26.6147 19.2925 26.7076Z" fill="#333333"/>
</svg>
