<svg width="24" height="24" viewBox="0 0 24 24" fill="none" xmlns="http://www.w3.org/2000/svg">
<path d="M3.00063 12.0001C3.00063 12.199 3.07965 12.3897 3.2203 12.5304C3.36095 12.671 3.55172 12.7501 3.75063 12.7501H18.4403L12.97 18.2194C12.9003 18.2891 12.845 18.3718 12.8073 18.4629C12.7696 18.5539 12.7502 18.6515 12.7502 18.7501C12.7502 18.8486 12.7696 18.9462 12.8073 19.0372C12.845 19.1283 12.9003 19.211 12.97 19.2807C13.0397 19.3504 13.1224 19.4056 13.2135 19.4433C13.3045 19.4811 13.4021 19.5005 13.5006 19.5005C13.5992 19.5005 13.6968 19.4811 13.7878 19.4433C13.8788 19.4056 13.9616 19.3504 14.0313 19.2807L20.7813 12.5307C20.851 12.461 20.9063 12.3783 20.9441 12.2873C20.9818 12.1962 21.0012 12.0986 21.0012 12.0001C21.0012 11.9015 20.9818 11.8039 20.9441 11.7128C20.9063 11.6218 20.851 11.5391 20.7813 11.4694L14.0313 4.71943C13.8905 4.5787 13.6997 4.49963 13.5006 4.49963C13.3016 4.49963 13.1107 4.5787 12.97 4.71943C12.8293 4.86016 12.7502 5.05103 12.7502 5.25005C12.7502 5.44907 12.8293 5.63995 12.97 5.78068L18.4403 11.2501H3.75063C3.55172 11.2501 3.36095 11.3291 3.2203 11.4697C3.07965 11.6104 3.00063 11.8011 3.00063 12.0001Z" fill="white"/>
</svg>
